<?xml version="1.0" encoding="UTF-8"?>
<!-- The Best Svg Icon site in the world: iconSvg.co, Visit us! https://iconsvg.co -->
<svg fill="#000000" width="800px" height="800px" version="1.1" viewBox="144 144 512 512" xmlns="http://www.w3.org/2000/svg">
 <path d="m397.32 157.61c75.543 0 137.4 61.859 137.4 137.4 0 76.137-61.859 137.4-137.4 137.4-76.137 0-138-61.266-138-137.4 0-75.543 61.859-137.4 138-137.4zm-88.629 298h182.61c82.68 0 149.89 67.215 149.89 149.89v36.879h-30.336v-36.879c0-65.43-53.535-119.56-119.56-119.56h-182.61c-66.023 0-119.56 54.129-119.56 119.56v36.879h-30.93v-36.879c0-82.68 67.809-149.89 150.49-149.89zm88.629-267.67c-59.48 0-107.07 48.18-107.07 107.07 0 59.48 47.586 107.07 107.07 107.07 58.887 0 106.47-47.586 106.47-107.07 0-58.887-47.586-107.07-106.47-107.07z"/>
</svg>